<svg xmlns="http://www.w3.org/2000/svg" viewBox="0 0 395.8 537.52"><defs><style>.cls-1{fill:#09b0ae;}</style></defs><title>product</title><g id="Capa_2" data-name="Capa 2"><g id="Capa_1-2" data-name="Capa 1"><path class="cls-1" d="M356.64,51.51H236c-10.08-19.38-18.34-33.92-22.71-40.92a20.85,20.85,0,0,0-7.48-7.68A26.23,26.23,0,0,0,195.47.1a45.86,45.86,0,0,0-5.93,0c-2.88.07-7,.12-12.12,0H166.26a13.31,13.31,0,0,0-7.23,3c-6.57,5.68-6.11,18.5,0,24a11.53,11.53,0,0,0,7.21,3,11.14,11.14,0,0,0,8-3.15,12.44,12.44,0,0,0,3.11-8.14,2.53,2.53,0,0,1,0-.27,5.5,5.5,0,0,1,5-5.11,5.29,5.29,0,0,1,5.37,4.87q-1.62,16.64-3.23,33.27H39.16A39.16,39.16,0,0,0,0,90.67V498.36a39.16,39.16,0,0,0,39.16,39.16H356.64a39.16,39.16,0,0,0,39.16-39.16V90.67A39.16,39.16,0,0,0,356.64,51.51Z"/></g></g></svg>